<svg xmlns="http://www.w3.org/2000/svg" xmlns:xlink="http://www.w3.org/1999/xlink" style="margin:auto;background:#0f141a;display:block;z-index:1;position:relative" width="3000" height="2000" preserveAspectRatio="xMidYMid" viewBox="0 0 3000 2000">
<g transform="translate(1500,1000) scale(1,1) translate(-1500,-1000)"><path d="M-100 1212.42C47.46 1222.54 49.44 1189.23 190.91 1189.23S340.43 1185.45 481.82 1185.45S630.96 1191.02 772.73 1191.02S920.9 1214.42 1063.64 1214.42S1211.59 1195.28 1354.55 1195.28S1503.75 1225.98 1645.45 1225.98S1795.65 1219.29 1936.36 1219.29S2084.3 1221.46 2227.27 1221.46S2377.37 1207.17 2518.18 1207.17S2668.72 1181.34 2809.09 1181.34S2958.94 1191.87 3100 1191.87S3248.55 1214.3 3390.91 1214.3L3100 2000 L-100 2000 Z" fill="#0f141a" stroke-width="0">
  <animate attributeName="d" dur="136.36363636363637s" repeatCount="indefinite" values="M-100 1212.42C47.46 1222.54 49.44 1189.23 190.91 1189.23S340.43 1185.45 481.82 1185.45S630.96 1191.02 772.73 1191.02S920.9 1214.42 1063.64 1214.42S1211.59 1195.28 1354.55 1195.28S1503.75 1225.98 1645.45 1225.98S1795.65 1219.29 1936.36 1219.29S2084.3 1221.46 2227.27 1221.46S2377.37 1207.17 2518.18 1207.17S2668.72 1181.34 2809.09 1181.34S2958.94 1191.87 3100 1191.87S3248.55 1214.3 3390.91 1214.3L3100 2000 L-100 2000 Z;M-100 1208.77C49.81 1214.65 46.79 1182.18 190.91 1182.18S337.41 1188.78 481.82 1188.78S628.84 1228.31 772.73 1228.31S920.23 1196.98 1063.64 1196.98S1214.16 1228.53 1354.55 1228.53S1500.77 1230.84 1645.45 1230.84S1795.39 1206.08 1936.36 1206.08S2085.26 1189.6 2227.27 1189.6S2372.82 1223.1 2518.18 1223.1S2665.75 1217.12 2809.09 1217.12S2957.45 1229.58 3100 1229.58S3246.8 1209.85 3390.91 1209.85L3100 2000 L-100 2000 Z;M-100 1212.42C47.46 1222.54 49.44 1189.23 190.91 1189.23S340.43 1185.45 481.82 1185.45S630.96 1191.02 772.73 1191.02S920.9 1214.42 1063.64 1214.42S1211.59 1195.28 1354.55 1195.28S1503.75 1225.98 1645.45 1225.98S1795.65 1219.29 1936.36 1219.29S2084.3 1221.46 2227.27 1221.46S2377.37 1207.17 2518.18 1207.17S2668.72 1181.34 2809.09 1181.34S2958.94 1191.87 3100 1191.87S3248.55 1214.3 3390.91 1214.3L3100 2000 L-100 2000 Z"></animate>
  <animateTransform attributeName="transform" type="translate" dur="136.36363636363637s" begin="0s" repeatCount="indefinite" values="0;10;0" calcMode="spline" keySplines="0.3 0 0.7 1;0.3 0 0.7 1"></animateTransform>
</path><path d="M-100 1211.19C50.24 1229.67 49.31 1237.23 196.3 1237.23S349.35 1202.45 492.59 1202.45S645.45 1221.64 788.89 1221.64S939.87 1243.96 1085.19 1243.96S1237.12 1239.52 1381.48 1239.52S1531.76 1192.34 1677.78 1192.34S1828.11 1214.1 1974.07 1214.1S2126.31 1219.47 2270.37 1219.47S2420.42 1197.3 2566.67 1197.3S2717 1229.57 2862.96 1229.57S3013.62 1212.16 3159.26 1212.16L3100 2000 L-100 2000 Z" fill="#12202a" stroke-width="0">
  <animate attributeName="d" dur="127.27272727272727s" repeatCount="indefinite" values="M-100 1211.19C50.24 1229.67 49.31 1237.23 196.3 1237.23S349.35 1202.45 492.59 1202.45S645.45 1221.64 788.89 1221.64S939.87 1243.96 1085.19 1243.96S1237.12 1239.52 1381.48 1239.52S1531.76 1192.34 1677.78 1192.34S1828.11 1214.1 1974.07 1214.1S2126.31 1219.47 2270.37 1219.47S2420.42 1197.3 2566.67 1197.3S2717 1229.57 2862.96 1229.57S3013.62 1212.16 3159.26 1212.16L3100 2000 L-100 2000 Z;M-100 1217.44C52.96 1231.21 51.15 1196.37 196.3 1196.37S346.74 1213.9 492.59 1213.9S641.88 1223.15 788.89 1223.15S937.2 1216.71 1085.19 1216.71S1234.13 1229.79 1381.48 1229.79S1533.5 1223.71 1677.78 1223.71S1830.45 1227.95 1974.07 1227.95S2122.92 1197.05 2270.37 1197.05S2421.37 1207.29 2566.67 1207.29S2715.25 1241.3 2862.96 1241.3S3011.87 1240.18 3159.26 1240.18L3100 2000 L-100 2000 Z;M-100 1211.19C50.24 1229.67 49.31 1237.23 196.3 1237.23S349.35 1202.45 492.59 1202.45S645.45 1221.64 788.89 1221.64S939.87 1243.96 1085.19 1243.96S1237.12 1239.52 1381.48 1239.52S1531.76 1192.34 1677.78 1192.34S1828.11 1214.1 1974.07 1214.1S2126.31 1219.47 2270.37 1219.47S2420.42 1197.3 2566.67 1197.3S2717 1229.57 2862.96 1229.57S3013.62 1212.16 3159.26 1212.16L3100 2000 L-100 2000 Z"></animate>
  <animateTransform attributeName="transform" type="translate" dur="127.27272727272727s" begin="-8.484848484848484s" repeatCount="indefinite" values="0;10;0" calcMode="spline" keySplines="0.3 0 0.7 1;0.3 0 0.7 1"></animateTransform>
</path><path d="M-100 1214.18C52.8 1239.19 52.98 1228.32 201.89 1228.32S353.59 1224.28 503.77 1224.28S655.98 1212.48 805.66 1212.48S956.75 1235.51 1107.55 1235.51S1262.8 1247.19 1409.43 1247.19S1561.75 1220.07 1711.32 1220.07S1864.74 1227.18 2013.21 1227.18S2165.32 1228.79 2315.09 1228.79S2467.02 1210.19 2616.98 1210.19S2768.55 1212.18 2918.87 1212.18S3073.19 1223.11 3220.75 1223.11L3100 2000 L-100 2000 Z" fill="#102d39" stroke-width="0">
  <animate attributeName="d" dur="118.18181818181819s" repeatCount="indefinite" values="M-100 1214.18C52.8 1239.19 52.98 1228.32 201.89 1228.32S353.59 1224.28 503.77 1224.28S655.98 1212.48 805.66 1212.48S956.75 1235.51 1107.55 1235.51S1262.8 1247.19 1409.43 1247.19S1561.75 1220.07 1711.32 1220.07S1864.74 1227.18 2013.21 1227.18S2165.32 1228.79 2315.09 1228.79S2467.02 1210.19 2616.98 1210.19S2768.55 1212.18 2918.87 1212.18S3073.19 1223.11 3220.75 1223.11L3100 2000 L-100 2000 Z;M-100 1223.19C54.49 1248.04 51.7 1219.36 201.89 1219.36S357.12 1207.97 503.77 1207.97S658.32 1210.19 805.66 1210.19S960.28 1243.92 1107.55 1243.92S1262.27 1233.65 1409.43 1233.65S1561.79 1215.88 1711.32 1215.88S1862.78 1227.76 2013.21 1227.76S2166.76 1233.43 2315.09 1233.43S2467.2 1238.4 2616.98 1238.4S2770.27 1221.13 2918.87 1221.13S3071.35 1223.33 3220.75 1223.33L3100 2000 L-100 2000 Z;M-100 1214.18C52.8 1239.19 52.98 1228.32 201.89 1228.32S353.59 1224.28 503.77 1224.28S655.98 1212.48 805.66 1212.48S956.75 1235.51 1107.55 1235.51S1262.8 1247.19 1409.43 1247.19S1561.75 1220.07 1711.32 1220.07S1864.74 1227.18 2013.21 1227.18S2165.32 1228.79 2315.09 1228.79S2467.02 1210.19 2616.98 1210.19S2768.55 1212.18 2918.87 1212.18S3073.19 1223.11 3220.75 1223.11L3100 2000 L-100 2000 Z"></animate>
  <animateTransform attributeName="transform" type="translate" dur="118.18181818181819s" begin="-15.757575757575758s" repeatCount="indefinite" values="0;10;0" calcMode="spline" keySplines="0.3 0 0.7 1;0.3 0 0.7 1"></animateTransform>
</path><path d="M-100 1232.27C54.13 1249.62 57.05 1252.57 207.69 1252.57S362.19 1249.82 515.38 1249.82S671.87 1254 823.08 1254S977.02 1264.4 1130.77 1264.4S1285.9 1223.56 1438.46 1223.56S1594.1 1260.17 1746.15 1260.17S1902.19 1240.85 2053.85 1240.85S2207.81 1260.06 2361.54 1260.06S2516.27 1226.63 2669.23 1226.63S2824.88 1267.23 2976.92 1267.23S3134.12 1221.49 3284.62 1221.49L3100 2000 L-100 2000 Z" fill="#073a46" stroke-width="0">
  <animate attributeName="d" dur="109.0909090909091s" repeatCount="indefinite" values="M-100 1232.27C54.13 1249.62 57.05 1252.57 207.69 1252.57S362.19 1249.82 515.38 1249.82S671.87 1254 823.08 1254S977.02 1264.4 1130.77 1264.4S1285.9 1223.56 1438.46 1223.56S1594.1 1260.17 1746.15 1260.17S1902.19 1240.85 2053.85 1240.85S2207.81 1260.06 2361.54 1260.06S2516.27 1226.63 2669.23 1226.63S2824.88 1267.23 2976.92 1267.23S3134.12 1221.49 3284.62 1221.49L3100 2000 L-100 2000 Z;M-100 1264.58C59.03 1259 55.42 1266.68 207.69 1266.68S364.35 1250.45 515.38 1250.45S673.47 1231.01 823.08 1231.01S979 1232.7 1130.77 1232.7S1288.13 1255.71 1438.46 1255.71S1597.4 1224.03 1746.15 1224.03S1901.14 1246.41 2053.85 1246.41S2210.58 1250.09 2361.54 1250.09S2517.18 1231.95 2669.23 1231.95S2826.67 1260.5 2976.92 1260.5S3135.01 1228.22 3284.62 1228.22L3100 2000 L-100 2000 Z;M-100 1232.27C54.13 1249.62 57.05 1252.57 207.69 1252.57S362.19 1249.82 515.38 1249.82S671.87 1254 823.08 1254S977.02 1264.4 1130.77 1264.4S1285.9 1223.56 1438.46 1223.56S1594.1 1260.17 1746.15 1260.17S1902.19 1240.85 2053.85 1240.85S2207.81 1260.06 2361.54 1260.06S2516.27 1226.63 2669.23 1226.63S2824.88 1267.23 2976.92 1267.23S3134.12 1221.49 3284.62 1221.49L3100 2000 L-100 2000 Z"></animate>
  <animateTransform attributeName="transform" type="translate" dur="109.0909090909091s" begin="-21.818181818181817s" repeatCount="indefinite" values="0;10;0" calcMode="spline" keySplines="0.3 0 0.7 1;0.3 0 0.7 1"></animateTransform>
</path><path d="M-100 1233.04C61.04 1272.62 61.34 1277.63 213.73 1277.63S372.92 1242.39 527.45 1242.39S686.91 1254.69 841.18 1254.69S1000.94 1245 1154.9 1245S1313.46 1278.81 1468.63 1278.81S1629.7 1280.08 1782.35 1280.08S1942.3 1273.29 2096.08 1273.29S2257.62 1259.82 2409.8 1259.82S2568.21 1270.68 2723.53 1270.68S2881.66 1235 3037.25 1235S3198.95 1243.96 3350.98 1243.96L3100 2000 L-100 2000 Z" fill="#004852" stroke-width="0">
  <animate attributeName="d" dur="100s" repeatCount="indefinite" values="M-100 1233.04C61.04 1272.62 61.34 1277.63 213.73 1277.63S372.92 1242.39 527.45 1242.39S686.91 1254.69 841.18 1254.69S1000.94 1245 1154.9 1245S1313.46 1278.81 1468.63 1278.81S1629.7 1280.08 1782.35 1280.08S1942.3 1273.29 2096.08 1273.29S2257.62 1259.82 2409.8 1259.82S2568.21 1270.68 2723.53 1270.68S2881.66 1235 3037.25 1235S3198.95 1243.96 3350.98 1243.96L3100 2000 L-100 2000 Z;M-100 1270.4C58.99 1238.7 60.84 1280.02 213.73 1280.02S375.29 1272.52 527.45 1272.52S685.05 1235.11 841.18 1235.11S1001.03 1239.04 1154.9 1239.04S1315.37 1234.81 1468.63 1234.81S1627.79 1268.68 1782.35 1268.68S1944.22 1265.84 2096.08 1265.84S2257.55 1263.26 2409.8 1263.26S2570.58 1283.84 2723.53 1283.84S2882.44 1245.7 3037.25 1245.7S3197.72 1276.77 3350.98 1276.77L3100 2000 L-100 2000 Z;M-100 1233.04C61.04 1272.62 61.34 1277.63 213.73 1277.63S372.92 1242.39 527.45 1242.39S686.91 1254.69 841.18 1254.69S1000.94 1245 1154.9 1245S1313.46 1278.81 1468.63 1278.81S1629.7 1280.08 1782.35 1280.08S1942.3 1273.29 2096.08 1273.29S2257.62 1259.82 2409.8 1259.82S2568.21 1270.68 2723.53 1270.68S2881.66 1235 3037.25 1235S3198.95 1243.96 3350.98 1243.96L3100 2000 L-100 2000 Z"></animate>
  <animateTransform attributeName="transform" type="translate" dur="100s" begin="-26.666666666666668s" repeatCount="indefinite" values="0;10;0" calcMode="spline" keySplines="0.3 0 0.7 1;0.3 0 0.7 1"></animateTransform>
</path><path d="M-100 1246.13C62.46 1272.13 62.4 1278.17 220 1278.17S381.84 1266.25 540 1266.25S704.9 1266.65 860 1266.65S1022.57 1288.22 1180 1288.22S1343.03 1280.88 1500 1280.88S1664.17 1276.49 1820 1276.49S1980.81 1295.42 2140 1295.42S2304.47 1287.74 2460 1287.74S2623.06 1256.09 2780 1256.09S2941.03 1258.08 3100 1258.08S3262.97 1265.16 3420 1265.16L3100 2000 L-100 2000 Z" fill="#00575a" stroke-width="0">
  <animate attributeName="d" dur="90.9090909090909s" repeatCount="indefinite" values="M-100 1246.13C62.46 1272.13 62.4 1278.17 220 1278.17S381.84 1266.25 540 1266.25S704.9 1266.65 860 1266.65S1022.57 1288.22 1180 1288.22S1343.03 1280.88 1500 1280.88S1664.17 1276.49 1820 1276.49S1980.81 1295.42 2140 1295.42S2304.47 1287.74 2460 1287.74S2623.06 1256.09 2780 1256.09S2941.03 1258.08 3100 1258.08S3262.97 1265.16 3420 1265.16L3100 2000 L-100 2000 Z;M-100 1273.13C61.14 1261.38 64.69 1273.07 220 1273.07S382.28 1245.29 540 1245.29S702.79 1287.74 860 1287.74S1020.52 1290.19 1180 1290.19S1344.59 1273.47 1500 1273.47S1662.88 1256.24 1820 1256.24S1982.23 1249.77 2140 1249.77S2301.43 1260.49 2460 1260.49S2624.64 1259.54 2780 1259.54S2945.14 1258.64 3100 1258.64S3261.07 1270 3420 1270L3100 2000 L-100 2000 Z;M-100 1246.13C62.46 1272.13 62.4 1278.17 220 1278.17S381.84 1266.25 540 1266.25S704.9 1266.65 860 1266.65S1022.57 1288.22 1180 1288.22S1343.03 1280.88 1500 1280.88S1664.17 1276.49 1820 1276.49S1980.81 1295.42 2140 1295.42S2304.47 1287.74 2460 1287.74S2623.06 1256.09 2780 1256.09S2941.03 1258.08 3100 1258.08S3262.97 1265.16 3420 1265.16L3100 2000 L-100 2000 Z"></animate>
  <animateTransform attributeName="transform" type="translate" dur="90.9090909090909s" begin="-30.3030303030303s" repeatCount="indefinite" values="0;10;0" calcMode="spline" keySplines="0.3 0 0.7 1;0.3 0 0.7 1"></animateTransform>
</path><path d="M-100 1288.92C66.94 1258.32 65.86 1286.55 226.53 1286.55S394.82 1272.37 553.06 1272.37S718.44 1307.46 879.59 1307.46S1047.46 1281.88 1206.12 1281.88S1374.09 1259.57 1532.65 1259.57S1697.9 1275.68 1859.18 1275.68S2025.32 1266.66 2185.71 1266.66S2351.21 1274.58 2512.24 1274.58S2679.79 1307.95 2838.78 1307.95S3005.28 1254.77 3165.31 1254.77L3100 2000 L-100 2000 Z" fill="#00655f" stroke-width="0">
  <animate attributeName="d" dur="81.81818181818181s" repeatCount="indefinite" values="M-100 1288.92C66.94 1258.32 65.86 1286.55 226.53 1286.55S394.82 1272.37 553.06 1272.37S718.44 1307.46 879.59 1307.46S1047.46 1281.88 1206.12 1281.88S1374.09 1259.57 1532.65 1259.57S1697.9 1275.68 1859.18 1275.68S2025.32 1266.66 2185.71 1266.66S2351.21 1274.58 2512.24 1274.58S2679.79 1307.95 2838.78 1307.95S3005.28 1254.77 3165.31 1254.77L3100 2000 L-100 2000 Z;M-100 1302.63C63.35 1287.34 65.01 1306.73 226.53 1306.73S394.51 1264.11 553.06 1264.11S720.86 1267.51 879.59 1267.51S1047.57 1264.13 1206.12 1264.13S1371.03 1279.12 1532.65 1279.12S1697.74 1285.4 1859.18 1285.4S2023.64 1279.64 2185.71 1279.64S2351.13 1252.84 2512.24 1252.84S2676.87 1262.62 2838.78 1262.62S3006.3 1286.28 3165.31 1286.28L3100 2000 L-100 2000 Z;M-100 1288.92C66.94 1258.32 65.86 1286.55 226.53 1286.55S394.82 1272.37 553.06 1272.37S718.44 1307.46 879.59 1307.46S1047.46 1281.88 1206.12 1281.88S1374.09 1259.57 1532.65 1259.57S1697.9 1275.68 1859.18 1275.68S2025.32 1266.66 2185.71 1266.66S2351.21 1274.58 2512.24 1274.58S2679.79 1307.95 2838.78 1307.95S3005.28 1254.77 3165.31 1254.77L3100 2000 L-100 2000 Z"></animate>
  <animateTransform attributeName="transform" type="translate" dur="81.81818181818181s" begin="-32.72727272727273s" repeatCount="indefinite" values="0;10;0" calcMode="spline" keySplines="0.3 0 0.7 1;0.3 0 0.7 1"></animateTransform>
</path><path d="M-100 1287.29C67.09 1303.35 69.56 1275.91 233.33 1275.91S402.31 1287.69 566.67 1287.69S733.81 1276.22 900 1276.22S1069.97 1284.09 1233.33 1284.09S1400.65 1278.19 1566.67 1278.19S1734.08 1310.28 1900 1310.28S2066.67 1288.96 2233.33 1288.96S2401.97 1283.57 2566.67 1283.57S2736.35 1280.66 2900 1280.66S3066.71 1285.73 3233.33 1285.73L3100 2000 L-100 2000 Z" fill="#007461" stroke-width="0">
  <animate attributeName="d" dur="72.72727272727273s" repeatCount="indefinite" values="M-100 1287.29C67.09 1303.35 69.56 1275.91 233.33 1275.91S402.31 1287.69 566.67 1287.69S733.81 1276.22 900 1276.22S1069.97 1284.09 1233.33 1284.09S1400.65 1278.19 1566.67 1278.19S1734.08 1310.28 1900 1310.28S2066.67 1288.96 2233.33 1288.96S2401.97 1283.57 2566.67 1283.57S2736.35 1280.66 2900 1280.66S3066.71 1285.73 3233.33 1285.73L3100 2000 L-100 2000 Z;M-100 1276.89C66.75 1278.4 67.11 1278.99 233.33 1278.99S403.44 1297.71 566.67 1297.71S736.42 1274.82 900 1274.82S1070.2 1264.35 1233.33 1264.35S1401.51 1269.72 1566.67 1269.72S1733.35 1311.85 1900 1311.85S2067.43 1279.07 2233.33 1279.07S2402.54 1286.59 2566.67 1286.59S2736.25 1275.77 2900 1275.77S3070 1291.91 3233.33 1291.91L3100 2000 L-100 2000 Z;M-100 1287.29C67.09 1303.35 69.56 1275.91 233.33 1275.91S402.31 1287.69 566.67 1287.69S733.81 1276.22 900 1276.22S1069.97 1284.09 1233.33 1284.09S1400.65 1278.19 1566.67 1278.19S1734.08 1310.28 1900 1310.28S2066.67 1288.96 2233.33 1288.96S2401.97 1283.57 2566.67 1283.57S2736.35 1280.66 2900 1280.66S3066.71 1285.73 3233.33 1285.73L3100 2000 L-100 2000 Z"></animate>
  <animateTransform attributeName="transform" type="translate" dur="72.72727272727273s" begin="-33.939393939393945s" repeatCount="indefinite" values="0;10;0" calcMode="spline" keySplines="0.3 0 0.7 1;0.3 0 0.7 1"></animateTransform>
</path><path d="M-100 1293.02C71.64 1309.9 72.68 1328.48 240.43 1328.48S413.5 1322.31 580.85 1322.31S755.95 1283.97 921.28 1283.97S1093.73 1292.27 1261.7 1292.27S1434.3 1294.62 1602.13 1294.62S1773.67 1292.13 1942.55 1292.13S2116.52 1293.4 2282.98 1293.4S2454.66 1284.04 2623.4 1284.04S2797.91 1292.63 2963.83 1292.63S3138.18 1318.6 3304.26 1318.6L3100 2000 L-100 2000 Z" fill="#06825f" stroke-width="0">
  <animate attributeName="d" dur="63.63636363636363s" repeatCount="indefinite" values="M-100 1293.02C71.64 1309.9 72.68 1328.48 240.43 1328.48S413.5 1322.31 580.85 1322.31S755.95 1283.97 921.28 1283.97S1093.73 1292.27 1261.7 1292.27S1434.3 1294.62 1602.13 1294.62S1773.67 1292.13 1942.55 1292.13S2116.52 1293.4 2282.98 1293.4S2454.66 1284.04 2623.4 1284.04S2797.91 1292.63 2963.83 1292.63S3138.18 1318.6 3304.26 1318.6L3100 2000 L-100 2000 Z;M-100 1277.91C75.01 1292.21 73.17 1306.73 240.43 1306.73S414.69 1300.18 580.85 1300.18S752.06 1296.15 921.28 1296.15S1091.89 1279.65 1261.7 1279.65S1437.07 1290.94 1602.13 1290.94S1774.59 1303.92 1942.55 1303.92S2113.18 1299.03 2282.98 1299.03S2455.91 1296.35 2623.4 1296.35S2797.24 1332.23 2963.83 1332.23S3135.39 1315.31 3304.26 1315.31L3100 2000 L-100 2000 Z;M-100 1293.02C71.64 1309.9 72.68 1328.48 240.43 1328.48S413.5 1322.31 580.85 1322.31S755.95 1283.97 921.28 1283.97S1093.73 1292.27 1261.7 1292.27S1434.3 1294.62 1602.13 1294.62S1773.67 1292.13 1942.55 1292.13S2116.52 1293.4 2282.98 1293.4S2454.66 1284.04 2623.4 1284.04S2797.91 1292.63 2963.83 1292.63S3138.18 1318.6 3304.26 1318.6L3100 2000 L-100 2000 Z"></animate>
  <animateTransform attributeName="transform" type="translate" dur="63.63636363636363s" begin="-33.93939393939394s" repeatCount="indefinite" values="0;10;0" calcMode="spline" keySplines="0.3 0 0.7 1;0.3 0 0.7 1"></animateTransform>
</path><path d="M-100 1310.61C77.04 1320.95 76.23 1330.28 247.83 1330.28S426.58 1314.23 595.65 1314.23S773.74 1299.92 943.48 1299.92S1119.97 1338.06 1291.3 1338.06S1470.26 1310.13 1639.13 1310.13S1813.3 1320.74 1986.96 1320.74S2165.49 1324.83 2334.78 1324.83S2513.57 1327.79 2682.61 1327.79S2860.9 1308.04 3030.43 1308.04S3206.72 1327.55 3378.26 1327.55L3100 2000 L-100 2000 Z" fill="#2e905b" stroke-width="0">
  <animate attributeName="d" dur="54.54545454545455s" repeatCount="indefinite" values="M-100 1310.61C77.04 1320.95 76.23 1330.28 247.83 1330.28S426.58 1314.23 595.65 1314.23S773.74 1299.92 943.48 1299.92S1119.97 1338.06 1291.3 1338.06S1470.26 1310.13 1639.13 1310.13S1813.3 1320.74 1986.96 1320.74S2165.49 1324.83 2334.78 1324.83S2513.57 1327.79 2682.61 1327.79S2860.9 1308.04 3030.43 1308.04S3206.72 1327.55 3378.26 1327.55L3100 2000 L-100 2000 Z;M-100 1347.69C78.42 1312.57 78.96 1303.26 247.83 1303.26S425.46 1297.88 595.65 1297.88S771.91 1305.2 943.48 1305.2S1118.61 1325.88 1291.3 1325.88S1468.4 1309.65 1639.13 1309.65S1815.1 1298.07 1986.96 1298.07S2165.07 1321.59 2334.78 1321.59S2512.07 1309.19 2682.61 1309.19S2859.23 1307.55 3030.43 1307.55S3208.56 1316.17 3378.26 1316.17L3100 2000 L-100 2000 Z;M-100 1310.61C77.04 1320.95 76.23 1330.28 247.83 1330.28S426.58 1314.23 595.65 1314.23S773.74 1299.92 943.48 1299.92S1119.97 1338.06 1291.3 1338.06S1470.26 1310.13 1639.13 1310.13S1813.3 1320.74 1986.96 1320.74S2165.49 1324.83 2334.78 1324.83S2513.57 1327.79 2682.61 1327.79S2860.9 1308.04 3030.43 1308.04S3206.72 1327.55 3378.26 1327.55L3100 2000 L-100 2000 Z"></animate>
  <animateTransform attributeName="transform" type="translate" dur="54.54545454545455s" begin="-32.72727272727273s" repeatCount="indefinite" values="0;10;0" calcMode="spline" keySplines="0.3 0 0.7 1;0.3 0 0.7 1"></animateTransform>
</path><path d="M-100 1331.78C81.52 1348.87 80.87 1300.54 255.56 1300.54S435.86 1341.19 611.11 1341.19S790.92 1344.82 966.67 1344.82S1145.54 1323.17 1322.22 1323.17S1502.12 1349.14 1677.78 1349.14S1858.7 1312.08 2033.33 1312.08S2212.78 1332.45 2388.89 1332.45S2567.19 1353.13 2744.44 1353.13S2923.88 1338.17 3100 1338.17S3280.76 1340.94 3455.56 1340.94L3100 2000 L-100 2000 Z" fill="#4d9d54" stroke-width="0">
  <animate attributeName="d" dur="45.45454545454545s" repeatCount="indefinite" values="M-100 1331.78C81.52 1348.87 80.87 1300.54 255.56 1300.54S435.86 1341.19 611.11 1341.19S790.92 1344.82 966.67 1344.82S1145.54 1323.17 1322.22 1323.17S1502.12 1349.14 1677.78 1349.14S1858.7 1312.08 2033.33 1312.08S2212.78 1332.45 2388.89 1332.45S2567.19 1353.13 2744.44 1353.13S2923.88 1338.17 3100 1338.17S3280.76 1340.94 3455.56 1340.94L3100 2000 L-100 2000 Z;M-100 1329.27C80.53 1302.93 78.93 1315.45 255.56 1315.45S435.15 1334.17 611.11 1334.17S792.8 1337.06 966.67 1337.06S1147.89 1313.34 1322.22 1313.34S1501.49 1334 1677.78 1334S1857.53 1338.48 2033.33 1338.48S2212.24 1330.89 2388.89 1330.89S2570.7 1305.89 2744.44 1305.89S2925.15 1336.04 3100 1336.04S3278.77 1318.75 3455.56 1318.75L3100 2000 L-100 2000 Z;M-100 1331.78C81.52 1348.87 80.87 1300.54 255.56 1300.54S435.86 1341.19 611.11 1341.19S790.92 1344.82 966.67 1344.82S1145.54 1323.17 1322.22 1323.17S1502.12 1349.14 1677.78 1349.14S1858.7 1312.08 2033.33 1312.08S2212.78 1332.45 2388.89 1332.45S2567.19 1353.13 2744.44 1353.13S2923.88 1338.17 3100 1338.17S3280.76 1340.94 3455.56 1340.94L3100 2000 L-100 2000 Z"></animate>
  <animateTransform attributeName="transform" type="translate" dur="45.45454545454545s" begin="-30.3030303030303s" repeatCount="indefinite" values="0;10;0" calcMode="spline" keySplines="0.3 0 0.7 1;0.3 0 0.7 1"></animateTransform>
</path><path d="M-100 1315.19C85.55 1324.29 85.18 1356.38 263.64 1356.38S446.77 1312.3 627.27 1312.3S813.94 1357.41 990.91 1357.41S1173.59 1356.15 1354.55 1356.15S1538.34 1336.18 1718.18 1336.18S1902.08 1342.42 2081.82 1342.42S2266.15 1331.95 2445.45 1331.95S2631.49 1339.46 2809.09 1339.46S2991.11 1327.68 3172.73 1327.68L3100 2000 L-100 2000 Z" fill="#6caa4d" stroke-width="0">
  <animate attributeName="d" dur="36.36363636363637s" repeatCount="indefinite" values="M-100 1315.19C85.55 1324.29 85.18 1356.38 263.64 1356.38S446.77 1312.3 627.27 1312.3S813.94 1357.41 990.91 1357.41S1173.59 1356.15 1354.55 1356.15S1538.34 1336.18 1718.18 1336.18S1902.08 1342.42 2081.82 1342.42S2266.15 1331.95 2445.45 1331.95S2631.49 1339.46 2809.09 1339.46S2991.11 1327.68 3172.73 1327.68L3100 2000 L-100 2000 Z;M-100 1362.52C84.24 1330.7 86.18 1355.65 263.64 1355.65S448.18 1347.11 627.27 1347.11S809.66 1351.34 990.91 1351.34S1175 1371.34 1354.55 1371.34S1540.14 1358.7 1718.18 1358.7S1902.93 1344.47 2081.82 1344.47S2264.12 1354.14 2445.45 1354.14S2627.57 1363.8 2809.09 1363.8S2994.14 1345.34 3172.73 1345.34L3100 2000 L-100 2000 Z;M-100 1315.19C85.55 1324.29 85.18 1356.38 263.64 1356.38S446.77 1312.3 627.27 1312.3S813.94 1357.41 990.91 1357.41S1173.59 1356.15 1354.55 1356.15S1538.34 1336.18 1718.18 1336.18S1902.08 1342.42 2081.82 1342.42S2266.15 1331.95 2445.45 1331.95S2631.49 1339.46 2809.09 1339.46S2991.11 1327.68 3172.73 1327.68L3100 2000 L-100 2000 Z"></animate>
  <animateTransform attributeName="transform" type="translate" dur="36.36363636363637s" begin="-26.66666666666667s" repeatCount="indefinite" values="0;10;0" calcMode="spline" keySplines="0.3 0 0.7 1;0.3 0 0.7 1"></animateTransform>
</path><path d="M-100 1346.02C86.87 1375.11 86.98 1376.05 272.09 1376.05S458.32 1336.01 644.19 1336.01S830.7 1325.98 1016.28 1325.98S1207.47 1358.99 1388.37 1358.99S1579.41 1366.64 1760.47 1366.64S1947.57 1356.33 2132.56 1356.33S2320.3 1361.94 2504.65 1361.94S2693.04 1347.16 2876.74 1347.16S3063.11 1385.15 3248.84 1385.15L3100 2000 L-100 2000 Z" fill="#8eb545" stroke-width="0">
  <animate attributeName="d" dur="27.272727272727273s" repeatCount="indefinite" values="M-100 1346.02C86.87 1375.11 86.98 1376.05 272.09 1376.05S458.32 1336.01 644.19 1336.01S830.7 1325.98 1016.28 1325.98S1207.47 1358.99 1388.37 1358.99S1579.41 1366.64 1760.47 1366.64S1947.57 1356.33 2132.56 1356.33S2320.3 1361.94 2504.65 1361.94S2693.04 1347.16 2876.74 1347.16S3063.11 1385.15 3248.84 1385.15L3100 2000 L-100 2000 Z;M-100 1344.36C89.22 1325.36 87.37 1352.93 272.09 1352.93S460.7 1356.85 644.19 1356.85S830.72 1342.95 1016.28 1342.95S1207.29 1346.04 1388.37 1346.04S1579.11 1361.78 1760.47 1361.78S1946.72 1366.23 2132.56 1366.23S2319.3 1341.11 2504.65 1341.11S2694.8 1324.9 2876.74 1324.9S3065.48 1381.5 3248.84 1381.5L3100 2000 L-100 2000 Z;M-100 1346.02C86.87 1375.11 86.98 1376.05 272.09 1376.05S458.32 1336.01 644.19 1336.01S830.7 1325.98 1016.28 1325.98S1207.47 1358.99 1388.37 1358.99S1579.41 1366.64 1760.47 1366.64S1947.57 1356.33 2132.56 1356.33S2320.3 1361.94 2504.65 1361.94S2693.04 1347.16 2876.74 1347.16S3063.11 1385.15 3248.84 1385.15L3100 2000 L-100 2000 Z"></animate>
  <animateTransform attributeName="transform" type="translate" dur="27.272727272727273s" begin="-21.818181818181817s" repeatCount="indefinite" values="0;10;0" calcMode="spline" keySplines="0.3 0 0.7 1;0.3 0 0.7 1"></animateTransform>
</path><path d="M-100 1374.06C94.64 1349.11 91.01 1377.16 280.95 1377.16S471.8 1367.15 661.9 1367.15S854.59 1377.22 1042.86 1377.22S1236.27 1339.63 1423.81 1339.63S1615.84 1388.54 1804.76 1388.54S1995.91 1347.71 2185.71 1347.71S2379.68 1376.8 2566.67 1376.8S2758.15 1370 2947.62 1370S3142.51 1357.42 3328.57 1357.42L3100 2000 L-100 2000 Z" fill="#b1be40" stroke-width="0">
  <animate attributeName="d" dur="18.181818181818183s" repeatCount="indefinite" values="M-100 1374.06C94.64 1349.11 91.01 1377.16 280.95 1377.16S471.8 1367.15 661.9 1367.15S854.59 1377.22 1042.86 1377.22S1236.27 1339.63 1423.81 1339.63S1615.84 1388.54 1804.76 1388.54S1995.91 1347.71 2185.71 1347.71S2379.68 1376.8 2566.67 1376.8S2758.15 1370 2947.62 1370S3142.51 1357.42 3328.57 1357.42L3100 2000 L-100 2000 Z;M-100 1386.38C94.76 1360.35 93.13 1369.3 280.95 1369.3S474.3 1371.27 661.9 1371.27S853.81 1391.34 1042.86 1391.34S1235.42 1373 1423.81 1373S1614.69 1373.42 1804.76 1373.42S2000.3 1397.19 2185.71 1397.19S2377.55 1392.81 2566.67 1392.81S2761.14 1347.13 2947.62 1347.13S3140 1362.35 3328.57 1362.35L3100 2000 L-100 2000 Z;M-100 1374.06C94.64 1349.11 91.01 1377.16 280.95 1377.16S471.8 1367.15 661.9 1367.15S854.59 1377.22 1042.86 1377.22S1236.27 1339.63 1423.81 1339.63S1615.84 1388.54 1804.76 1388.54S1995.91 1347.71 2185.71 1347.71S2379.68 1376.8 2566.67 1376.8S2758.15 1370 2947.62 1370S3142.51 1357.42 3328.57 1357.42L3100 2000 L-100 2000 Z"></animate>
  <animateTransform attributeName="transform" type="translate" dur="18.181818181818183s" begin="-15.757575757575758s" repeatCount="indefinite" values="0;10;0" calcMode="spline" keySplines="0.3 0 0.7 1;0.3 0 0.7 1"></animateTransform>
</path><path d="M-100 1374.49C95.51 1393.02 96.36 1385.66 290.24 1385.66S485.49 1366.69 680.49 1366.69S877.05 1365.08 1070.73 1365.08S1267.55 1392.29 1460.98 1392.29S1658.94 1363.27 1851.22 1363.27S2050.77 1371.81 2241.46 1371.81S2440.54 1375.01 2631.71 1375.01S2828.9 1404.83 3021.95 1404.83S3218.04 1388.03 3412.2 1388.03L3100 2000 L-100 2000 Z" fill="#d7c640" stroke-width="0">
  <animate attributeName="d" dur="9.090909090909092s" repeatCount="indefinite" values="M-100 1374.49C95.51 1393.02 96.36 1385.66 290.24 1385.66S485.49 1366.69 680.49 1366.69S877.05 1365.08 1070.73 1365.08S1267.55 1392.29 1460.98 1392.29S1658.94 1363.27 1851.22 1363.27S2050.77 1371.81 2241.46 1371.81S2440.54 1375.01 2631.71 1375.01S2828.9 1404.83 3021.95 1404.83S3218.04 1388.03 3412.2 1388.03L3100 2000 L-100 2000 Z;M-100 1349.88C95.74 1348.61 95.62 1378.44 290.24 1378.44S489.66 1352.97 680.49 1352.97S878 1401.62 1070.73 1401.62S1267.96 1393.12 1460.98 1393.12S1657.93 1367.5 1851.22 1367.5S2046.43 1388.23 2241.46 1388.23S2441.57 1398.75 2631.71 1398.75S2826.93 1357.94 3021.95 1357.94S3221.31 1382.67 3412.2 1382.67L3100 2000 L-100 2000 Z;M-100 1374.49C95.51 1393.02 96.36 1385.66 290.24 1385.66S485.49 1366.69 680.49 1366.69S877.05 1365.08 1070.73 1365.08S1267.55 1392.29 1460.98 1392.29S1658.94 1363.27 1851.22 1363.27S2050.77 1371.81 2241.46 1371.81S2440.54 1375.01 2631.71 1375.01S2828.9 1404.83 3021.95 1404.83S3218.04 1388.03 3412.2 1388.03L3100 2000 L-100 2000 Z"></animate>
  <animateTransform attributeName="transform" type="translate" dur="9.090909090909092s" begin="-8.484848484848486s" repeatCount="indefinite" values="0;10;0" calcMode="spline" keySplines="0.3 0 0.7 1;0.3 0 0.7 1"></animateTransform>
</path></g>
</svg>