<?xml version="1.0" encoding="UTF-8"?>
<svg width="30px" height="31px" viewBox="0 0 30 31" version="1.1" xmlns="http://www.w3.org/2000/svg" xmlns:xlink="http://www.w3.org/1999/xlink">
    <title>Group</title>
    <g id="logo" stroke="none" stroke-width="1" fill="none" fill-rule="evenodd">
        <g id="Group" transform="translate(0.000000, 0.543307)" fill-rule="nonzero">
            <circle id="Oval" fill="#D6C63F" cx="15" cy="15" r="15"></circle>
            <g id="M" transform="translate(5.798274, 6.667630)" fill="#000000">
                <path d="M12.8046875,11.3007812 L13.578125,9.83984375 L13.578125,17.7890625 L12.8046875,17.7890625 L12.8046875,11.3007812 Z M14.3515625,8.3359375 L15.125,6.875 L15.125,17.7890625 L14.3515625,17.7890625 L14.3515625,8.3359375 Z M15.8984375,5.4140625 L16.671875,3.94238281 L16.671875,17.7890625 L15.8984375,17.7890625 L15.8984375,5.4140625 Z M10.7099609,10.9355469 L10.2695312,10.1298828 L15.5976562,0 L16.4677734,0 L10.7099609,10.9355469 Z M9.81835938,9.24902344 L9.3671875,8.43261719 L13.8359375,0 L14.7167969,0 L9.81835938,9.24902344 Z M4.640625,9.92578125 L5.4140625,11.3867188 L5.4140625,17.7890625 L4.640625,17.7890625 L4.640625,9.92578125 Z M3.09375,6.98242188 L3.8671875,8.44335938 L3.8671875,17.7890625 L3.09375,17.7890625 L3.09375,6.98242188 Z M1.546875,4.0390625 L2.3203125,5.51074219 L2.3203125,17.7890625 L1.546875,17.7890625 L1.546875,4.0390625 Z M7.79882812,13.1484375 L6.92871094,13.1484375 L0.7734375,1.47167969 L0.7734375,17.7890625 L0,17.7890625 L0,0 L0.870117188,0 L7.79882812,13.1484375 Z M9.54980469,13.1484375 L8.66894531,13.1484375 L1.75097656,0 L2.63183594,0 L9.54980469,13.1484375 Z M17.4453125,1.47167969 L11.2900391,13.1484375 L10.4091797,13.1484375 L3.50195312,0 L4.37207031,0 L10.8603516,12.3320312 L17.3378906,0 L18.21875,0 L18.21875,17.7890625 L17.4453125,17.7890625 L17.4453125,1.47167969 Z" id="Shape"></path>
            </g>
        </g>
    </g>
</svg>