<svg xmlns="http://www.w3.org/2000/svg" width="2327" height="1063" preserveAspectRatio="xMidYMid" style="margin:auto;background:#0f141a;display:block;z-index:1;position:relative"><path fill="#0f141a" d="M-100 645.36c66.69 11.57 66.76-1.89 133-1.89s66.63-.29 133-.29 68.61-5.26 133-5.26 67.82 13.71 133 13.71 68.1 8.08 133 8.08 69.07-10.83 133-10.83 66.55 3.63 133 3.63 68.93.14 133 .14 67.89-1.55 133-1.55 68.47-6.11 133-6.11 68.55-5.98 133-5.98 67.43 13.79 133 13.79 68.37-7.86 133-7.86 68.3-3.76 133-3.76 66.76 14.1 133 14.1 67.83-10.81 133-10.81 66.84-5.37 133-5.37 66.5 15.04 133 15.04 68.6-11.55 133-11.55 67.22 5.79 133 5.79L2427 1063H-100Z"><animate attributeName="d" dur="29.41176470588235s" repeatCount="indefinite" values="M-100 645.36C-33.31 656.93 -33.24 643.47 33 643.47S99.63 643.18 166 643.18S234.61 637.92 299 637.92S366.82 651.63 432 651.63S500.1 659.71 565 659.71S634.07 648.88 698 648.88S764.55 652.51 831 652.51S899.93 652.65 964 652.65S1031.89 651.1 1097 651.1S1165.47 644.99 1230 644.99S1298.55 639.01 1363 639.01S1430.43 652.8 1496 652.8S1564.37 644.94 1629 644.94S1697.3 641.18 1762 641.18S1828.76 655.28 1895 655.28S1962.83 644.47 2028 644.47S2094.84 639.1 2161 639.1S2227.5 654.14 2294 654.14S2362.6 642.59 2427 642.59S2494.22 648.38 2560 648.38L2427 1063 L-100 1063 Z;M-100 654.04C-31.52 651.91 -32.27 641.59 33 641.59S100.29 641.54 166 641.54S235.23 650.46 299 650.46S366.61 647.87 432 647.87S499.74 655.28 565 655.28S633.75 647.17 698 647.17S766.32 647.09 831 647.09S898.16 642.37 964 642.37S1031.19 649.37 1097 649.37S1165.74 652.46 1230 652.46S1298.61 663.15 1363 663.15S1430.24 646.16 1496 646.16S1564.99 655.28 1629 655.28S1697.78 654.61 1762 654.61S1828.89 653.04 1895 653.04S1962.83 640.74 2028 640.74S2096.52 654.56 2161 654.56S2229.44 647.35 2294 647.35S2361.97 647.21 2427 647.21S2494.95 652.62 2560 652.62L2427 1063 L-100 1063 Z;M-100 645.36C-33.31 656.93 -33.24 643.47 33 643.47S99.63 643.18 166 643.18S234.61 637.92 299 637.92S366.82 651.63 432 651.63S500.1 659.71 565 659.71S634.07 648.88 698 648.88S764.55 652.51 831 652.51S899.93 652.65 964 652.65S1031.89 651.1 1097 651.1S1165.47 644.99 1230 644.99S1298.55 639.01 1363 639.01S1430.43 652.8 1496 652.8S1564.37 644.94 1629 644.94S1697.3 641.18 1762 641.18S1828.76 655.28 1895 655.28S1962.83 644.47 2028 644.47S2094.84 639.1 2161 639.1S2227.5 654.14 2294 654.14S2362.6 642.59 2427 642.59S2494.22 648.38 2560 648.38L2427 1063 L-100 1063 Z"/><animateTransform attributeName="transform" begin="0s" calcMode="spline" dur="29.41176470588235s" keySplines="0.3 0 0.7 1;0.3 0 0.7 1" repeatCount="indefinite" type="translate" values="0;10;0"/></path><path fill="#12202a" d="M-100 671.57c69.6-5.57 69.98-14.79 135.38-14.79s69.29-10.84 135.37-10.84 68.43 25.09 135.38 25.09 70.44-2.09 135.37-2.09 68.39-9.28 135.38-9.28 69.34 9.67 135.37 9.67 68.04-14.31 135.38-14.31 68.64 6.07 135.37 6.07 69.37 4 135.38 4 69.36-5.88 135.37-5.88 69.31-10.85 135.38-10.85 69.11 7.53 135.37 7.53 69.77-.06 135.38-.06 69.27 4.44 135.37 4.44 68.18-13.25 135.38-13.25 70.02 19.97 135.37 19.97 70.16-.96 135.38-.96 70.28-.39 135.37-.39 70.26-10.39 135.38-10.39L2427 1063H-100Z"><animate attributeName="d" dur="27.45098039215686s" repeatCount="indefinite" values="M-100 671.57C-30.4 666 -30.02 656.78 35.38 656.78S104.67 645.94 170.75 645.94S239.18 671.03 306.13 671.03S376.57 668.94 441.5 668.94S509.89 659.66 576.88 659.66S646.22 669.33 712.25 669.33S780.29 655.02 847.63 655.02S916.27 661.09 983 661.09S1052.37 665.09 1118.38 665.09S1187.74 659.21 1253.75 659.21S1323.06 648.36 1389.13 648.36S1458.24 655.89 1524.5 655.89S1594.27 655.83 1659.88 655.83S1729.15 660.27 1795.25 660.27S1863.43 647.02 1930.63 647.02S2000.65 666.99 2066 666.99S2136.16 666.03 2201.38 666.03S2271.66 665.64 2336.75 665.64S2407.01 655.25 2472.13 655.25L2427 1063 L-100 1063 Z;M-100 666.86C-30.29 649.61 -31.17 653.26 35.38 653.26S104.53 670.68 170.75 670.68S239.76 666.53 306.13 666.53S374.12 673.36 441.5 673.36S510.12 656.07 576.88 656.07S646.38 665.86 712.25 665.86S780.96 654.29 847.63 654.29S917.35 667.79 983 667.79S1053.4 655.15 1118.38 655.15S1188.35 653.59 1253.75 653.59S1322.06 658.73 1389.13 658.73S1458.2 646.06 1524.5 646.06S1592.24 664.02 1659.88 664.02S1727.69 668.52 1795.25 668.52S1865.5 649.91 1930.63 649.91S1998.98 669.91 2066 669.91S2134.49 669.66 2201.38 669.66S2271.04 653.22 2336.75 653.22S2405.96 661.9 2472.13 661.9L2427 1063 L-100 1063 Z;M-100 671.57C-30.4 666 -30.02 656.78 35.38 656.78S104.67 645.94 170.75 645.94S239.18 671.03 306.13 671.03S376.57 668.94 441.5 668.94S509.89 659.66 576.88 659.66S646.22 669.33 712.25 669.33S780.29 655.02 847.63 655.02S916.27 661.09 983 661.09S1052.37 665.09 1118.38 665.09S1187.74 659.21 1253.75 659.21S1323.06 648.36 1389.13 648.36S1458.24 655.89 1524.5 655.89S1594.27 655.83 1659.88 655.83S1729.15 660.27 1795.25 660.27S1863.43 647.02 1930.63 647.02S2000.65 666.99 2066 666.99S2136.16 666.03 2201.38 666.03S2271.66 665.64 2336.75 665.64S2407.01 655.25 2472.13 655.25L2427 1063 L-100 1063 Z"/><animateTransform attributeName="transform" begin="-1.8300653594771241s" calcMode="spline" dur="27.45098039215686s" keySplines="0.3 0 0.7 1;0.3 0 0.7 1" repeatCount="indefinite" type="translate" values="0;10;0"/></path><path fill="#102d39" d="M-100 661.87c70.15 1.46 70.3-.71 137.84-.71s71.42 5.82 137.83 5.82 71.3-4.44 137.84-4.44 70.84 9.35 137.84 9.35 70.52-2.48 137.83-2.48 69.81 1.9 137.84 1.9 71.38-2.19 137.83-2.19 69.3-3.93 137.84-3.93 69.94 3.4 137.84 3.4 71.09 11.12 137.83 11.12 71.16-6.69 137.84-6.69 71.51-16.91 137.84-16.91 71.6 11.62 137.83 11.62 69.39-13.52 137.84-13.52 71.18 6.09 137.84 6.09 70.04.83 137.83.83 69.73 4.07 137.84 4.07 70.41 9.19 137.83 9.19 69.74-13.11 137.84-13.11L2427 1063H-100Z"><animate attributeName="d" dur="25.49019607843137s" repeatCount="indefinite" values="M-100 661.87C-29.85 663.33 -29.7 661.16 37.84 661.16S109.26 666.98 175.67 666.98S246.97 662.54 313.51 662.54S384.35 671.89 451.35 671.89S521.87 669.41 589.18 669.41S658.99 671.31 727.02 671.31S798.4 669.12 864.85 669.12S934.15 665.19 1002.69 665.19S1072.63 668.59 1140.53 668.59S1211.62 679.71 1278.36 679.71S1349.52 673.02 1416.2 673.02S1487.71 656.11 1554.04 656.11S1625.64 667.73 1691.87 667.73S1761.26 654.21 1829.71 654.21S1900.89 660.3 1967.55 660.3S2037.59 661.13 2105.38 661.13S2175.11 665.2 2243.22 665.2S2313.63 674.39 2381.05 674.39S2450.79 661.28 2518.89 661.28L2427 1063 L-100 1063 Z;M-100 655.92C-30.67 676.85 -29.67 657.89 37.84 657.89S107.64 675.54 175.67 675.54S246.66 675.88 313.51 675.88S382.54 657.6 451.35 657.6S520.42 675.04 589.18 675.04S660.11 676.3 727.02 676.3S798.13 664.56 864.85 664.56S934.29 671.75 1002.69 671.75S1074.08 675.71 1140.53 675.71S1211.02 668.15 1278.36 668.15S1349.01 670.11 1416.2 670.11S1487.84 680.85 1554.04 680.85S1625.63 681.94 1691.87 681.94S1762.53 658.25 1829.71 658.25S1899.51 673.88 1967.55 673.88S2037.63 656.34 2105.38 656.34S2176 675.36 2243.22 675.36S2312.87 679.2 2381.05 679.2S2450.3 660.03 2518.89 660.03L2427 1063 L-100 1063 Z;M-100 661.87C-29.85 663.33 -29.7 661.16 37.84 661.16S109.26 666.98 175.67 666.98S246.97 662.54 313.51 662.54S384.35 671.89 451.35 671.89S521.87 669.41 589.18 669.41S658.99 671.31 727.02 671.31S798.4 669.12 864.85 669.12S934.15 665.19 1002.69 665.19S1072.63 668.59 1140.53 668.59S1211.62 679.71 1278.36 679.71S1349.52 673.02 1416.2 673.02S1487.71 656.11 1554.04 656.11S1625.64 667.73 1691.87 667.73S1761.26 654.21 1829.71 654.21S1900.89 660.3 1967.55 660.3S2037.59 661.13 2105.38 661.13S2175.11 665.2 2243.22 665.2S2313.63 674.39 2381.05 674.39S2450.79 661.28 2518.89 661.28L2427 1063 L-100 1063 Z"/><animateTransform attributeName="transform" begin="-3.3986928104575163s" calcMode="spline" dur="25.49019607843137s" keySplines="0.3 0 0.7 1;0.3 0 0.7 1" repeatCount="indefinite" type="translate" values="0;10;0"/></path><path fill="#073a46" d="M-100 671.48c71.94 9.31 71.43 1.4 140.39 1.4s71.76 17.57 140.39 17.57 72.89-1.52 140.39-1.52 72.89-26.1 140.39-26.1 70.33 30.15 140.38 30.15 72.9-8.74 140.39-8.74 71.61-1.94 140.39-1.94 71.01-11.6 140.39-11.6 72.01 10.55 140.39 10.55 71.83-15.61 140.39-15.61 70.72 11.4 140.39 11.4 71.75 9.95 140.39 9.95 72.42-1.48 140.39-1.48 71.82-10.63 140.38-10.63 72.82-5.46 140.39-5.46 71.78-.23 140.39-.23 72.42 15.46 140.39 15.46 71.2-1.8 140.39-1.8 72.48-16.16 140.39-16.16L2427 1063H-100Z"><animate attributeName="d" dur="23.52941176470588s" repeatCount="indefinite" values="M-100 671.48C-28.06 680.79 -28.57 672.88 40.39 672.88S112.15 690.45 180.78 690.45S253.67 688.93 321.17 688.93S394.06 662.83 461.56 662.83S531.89 692.98 601.94 692.98S674.84 684.24 742.33 684.24S813.94 682.3 882.72 682.3S953.73 670.7 1023.11 670.7S1095.12 681.25 1163.5 681.25S1235.33 665.64 1303.89 665.64S1374.61 677.04 1444.28 677.04S1516.03 686.99 1584.67 686.99S1657.09 685.51 1725.06 685.51S1796.88 674.88 1865.44 674.88S1938.26 669.42 2005.83 669.42S2077.61 669.19 2146.22 669.19S2218.64 684.65 2286.61 684.65S2357.81 682.85 2427 682.85S2499.48 666.69 2567.39 666.69L2427 1063 L-100 1063 Z;M-100 683.83C-28.71 685.45 -28.74 676.87 40.39 676.87S112.91 669.7 180.78 669.7S252.23 691.53 321.17 691.53S393.05 671.25 461.56 671.25S534.31 670.47 601.94 670.47S673.87 683.36 742.33 683.36S814.49 683.89 882.72 683.89S953.17 678.32 1023.11 678.32S1094.9 679.82 1163.5 679.82S1235.98 668.23 1303.89 668.23S1374.09 668.96 1444.28 668.96S1516.25 673.79 1584.67 673.79S1655.08 672.21 1725.06 672.21S1796.53 662.06 1865.44 662.06S1937.6 682.31 2005.83 682.31S2076.32 667.4 2146.22 667.4S2217.75 687.53 2286.61 687.53S2356.84 665.17 2427 665.17S2497.67 672.65 2567.39 672.65L2427 1063 L-100 1063 Z;M-100 671.48C-28.06 680.79 -28.57 672.88 40.39 672.88S112.15 690.45 180.78 690.45S253.67 688.93 321.17 688.93S394.06 662.83 461.56 662.83S531.89 692.98 601.94 692.98S674.84 684.24 742.33 684.24S813.94 682.3 882.72 682.3S953.73 670.7 1023.11 670.7S1095.12 681.25 1163.5 681.25S1235.33 665.64 1303.89 665.64S1374.61 677.04 1444.28 677.04S1516.03 686.99 1584.67 686.99S1657.09 685.51 1725.06 685.51S1796.88 674.88 1865.44 674.88S1938.26 669.42 2005.83 669.42S2077.61 669.19 2146.22 669.19S2218.64 684.65 2286.61 684.65S2357.81 682.85 2427 682.85S2499.48 666.69 2567.39 666.69L2427 1063 L-100 1063 Z"/><animateTransform attributeName="transform" begin="-4.705882352941176s" calcMode="spline" dur="23.52941176470588s" keySplines="0.3 0 0.7 1;0.3 0 0.7 1" repeatCount="indefinite" type="translate" values="0;10;0"/></path><path fill="#004852" d="M-100 677.28c72.69 17.7 73.99 14.84 143.04 14.84s73.51-12.81 143.04-12.81 73.72 6.28 143.03 6.28 73.28.69 143.04.69 73.98 1.17 143.04 1.17 73.43 8.24 143.04 8.24 72.94 3.68 143.03 3.68 71.56-13.45 143.04-13.45 73.27-3.48 143.04-3.48 73.8 18.98 143.04 18.98 73.26-14.35 143.04-14.35 73.24-.57 143.03-.57 72.8-11.37 143.04-11.37 73.84 5.16 143.04 5.16 72.78 1.93 143.04 1.93 73.4-4.55 143.03-4.55 74.15 19.75 143.04 19.75 71.69-17.2 143.04-17.2L2427 1063H-100Z"><animate attributeName="d" dur="21.56862745098039s" repeatCount="indefinite" values="M-100 677.28C-27.31 694.98 -26.01 692.12 43.04 692.12S116.55 679.31 186.08 679.31S259.8 685.59 329.11 685.59S402.39 686.28 472.15 686.28S546.13 687.45 615.19 687.45S688.62 695.69 758.23 695.69S831.17 699.37 901.26 699.37S972.82 685.92 1044.3 685.92S1117.57 682.44 1187.34 682.44S1261.14 701.42 1330.38 701.42S1403.64 687.07 1473.42 687.07S1546.66 686.5 1616.45 686.5S1689.25 675.13 1759.49 675.13S1833.33 680.29 1902.53 680.29S1975.31 682.22 2045.57 682.22S2118.97 677.67 2188.6 677.67S2262.75 697.42 2331.64 697.42S2403.33 680.22 2474.68 680.22L2427 1063 L-100 1063 Z;M-100 693.01C-25.75 674.47 -27.58 669.99 43.04 669.99S116.23 676.2 186.08 676.2S259.65 684.3 329.11 684.3S402.83 687.82 472.15 687.82S544.09 693.76 615.19 693.76S688.7 672.03 758.23 672.03S830.33 700.66 901.26 700.66S975.1 683.96 1044.3 683.96S1115.93 701.89 1187.34 701.89S1261.25 690.24 1330.38 690.24S1404.51 678.73 1473.42 678.73S1546.73 684.05 1616.45 684.05S1688.39 684.56 1759.49 684.56S1831.91 693.88 1902.53 693.88S1976.01 693.21 2045.57 693.21S2119.28 688.9 2188.6 688.9S2260.52 693.34 2331.64 693.34S2404.15 677.18 2474.68 677.18L2427 1063 L-100 1063 Z;M-100 677.28C-27.31 694.98 -26.01 692.12 43.04 692.12S116.55 679.31 186.08 679.31S259.8 685.59 329.11 685.59S402.39 686.28 472.15 686.28S546.13 687.45 615.19 687.45S688.62 695.69 758.23 695.69S831.17 699.37 901.26 699.37S972.82 685.92 1044.3 685.92S1117.57 682.44 1187.34 682.44S1261.14 701.42 1330.38 701.42S1403.64 687.07 1473.42 687.07S1546.66 686.5 1616.45 686.5S1689.25 675.13 1759.49 675.13S1833.33 680.29 1902.53 680.29S1975.31 682.22 2045.57 682.22S2118.97 677.67 2188.6 677.67S2262.75 697.42 2331.64 697.42S2403.33 680.22 2474.68 680.22L2427 1063 L-100 1063 Z"/><animateTransform attributeName="transform" begin="-5.751633986928104s" calcMode="spline" dur="21.56862745098039s" keySplines="0.3 0 0.7 1;0.3 0 0.7 1" repeatCount="indefinite" type="translate" values="0;10;0"/></path><path fill="#00575a" d="M-100 697.73c74.9-13.81 74.78 4.07 145.79 4.07s75.34-8.03 145.79-8.03 73.16 6.85 145.79 6.85 73.99 1.63 145.78 1.63 73.4 2.25 145.79 2.25 73.1-22.88 145.79-22.88 74.65 4.34 145.79 4.34 73.65 17.52 145.79 17.52 75.04-.86 145.79-.86 75.06-9.19 145.78-9.19 73.78-1.47 145.79-1.47 74.41 9.51 145.79 9.51 74.63 1.85 145.79 1.85 72.92 3.3 145.79 3.3 73.17-16.49 145.79-16.49 74.98-11.57 145.79-11.57 75.53 6.16 145.78 6.16 73.54 2.44 145.79 2.44L2427 1063H-100Z"><animate attributeName="d" dur="19.607843137254903s" repeatCount="indefinite" values="M-100 697.73C-25.1 683.92 -25.22 701.8 45.79 701.8S121.13 693.77 191.58 693.77S264.74 700.62 337.37 700.62S411.36 702.25 483.15 702.25S556.55 704.5 628.94 704.5S702.04 681.62 774.73 681.62S849.38 685.96 920.52 685.96S994.17 703.48 1066.31 703.48S1141.35 702.62 1212.1 702.62S1287.16 693.43 1357.88 693.43S1431.66 691.96 1503.67 691.96S1578.08 701.47 1649.46 701.47S1724.09 703.32 1795.25 703.32S1868.17 706.62 1941.04 706.62S2014.21 690.13 2086.83 690.13S2161.81 678.56 2232.62 678.56S2308.15 684.72 2378.4 684.72S2451.94 687.16 2524.19 687.16L2427 1063 L-100 1063 Z;M-100 684.82C-26.66 701.95 -25.19 684.85 45.79 684.85S120.13 700.56 191.58 700.56S264.72 690.95 337.37 690.95S412.03 697.71 483.15 697.71S558.63 685.42 628.94 685.42S703.33 691.67 774.73 691.67S849.4 691.82 920.52 691.82S995.44 701.5 1066.31 701.5S1140.18 688.2 1212.1 688.2S1286.7 699.15 1357.88 699.15S1431.14 689.08 1503.67 689.08S1577.76 694.19 1649.46 694.19S1724.26 709.37 1795.25 709.37S1870.81 690.29 1941.04 690.29S2016.57 708.42 2086.83 708.42S2160.68 688.72 2232.62 688.72S2307.26 692.31 2378.4 692.31S2451.94 698.48 2524.19 698.48L2427 1063 L-100 1063 Z;M-100 697.73C-25.1 683.92 -25.22 701.8 45.79 701.8S121.13 693.77 191.58 693.77S264.74 700.62 337.37 700.62S411.36 702.25 483.15 702.25S556.55 704.5 628.94 704.5S702.04 681.62 774.73 681.62S849.38 685.96 920.52 685.96S994.17 703.48 1066.31 703.48S1141.35 702.62 1212.1 702.62S1287.16 693.43 1357.88 693.43S1431.66 691.96 1503.67 691.96S1578.08 701.47 1649.46 701.47S1724.09 703.32 1795.25 703.32S1868.17 706.62 1941.04 706.62S2014.21 690.13 2086.83 690.13S2161.81 678.56 2232.62 678.56S2308.15 684.72 2378.4 684.72S2451.94 687.16 2524.19 687.16L2427 1063 L-100 1063 Z"/><animateTransform attributeName="transform" begin="-6.535947712418301s" calcMode="spline" dur="19.607843137254903s" keySplines="0.3 0 0.7 1;0.3 0 0.7 1" repeatCount="indefinite" type="translate" values="0;10;0"/></path><path fill="#00655f" d="M-100 687.02c74.77 10.05 76.04 25.12 148.65 25.12s75.91-16 148.64-16 76.53 22.46 148.65 22.46 75.71-27.61 148.65-27.61 75.3 11.98 148.65 11.98 76.99-12.38 148.64-12.38 76.08 2.19 148.65 2.19 75.73 4.5 148.65 4.5 76.26 13.36 148.64 13.36 76.36-10.51 148.65-10.51 74.57-12.8 148.65-12.8 74.62 17.05 148.64 17.05 75.56-14.48 148.65-14.48 74.98 7.58 148.65 7.58 75.35 6.27 148.65 6.27 77.03-9.46 148.64-9.46 74.56 8.23 148.65 8.23 75.87 9.57 148.65 9.57L2427 1063H-100Z"><animate attributeName="d" dur="17.647058823529413s" repeatCount="indefinite" values="M-100 687.02C-25.23 697.07 -23.96 712.14 48.65 712.14S124.56 696.14 197.29 696.14S273.82 718.6 345.94 718.6S421.65 690.99 494.59 690.99S569.89 702.97 643.24 702.97S720.23 690.59 791.88 690.59S867.96 692.78 940.53 692.78S1016.26 697.28 1089.18 697.28S1165.44 710.64 1237.82 710.64S1314.18 700.13 1386.47 700.13S1461.04 687.33 1535.12 687.33S1609.74 704.38 1683.76 704.38S1759.32 689.9 1832.41 689.9S1907.39 697.48 1981.06 697.48S2056.41 703.75 2129.71 703.75S2206.74 694.29 2278.35 694.29S2352.91 702.52 2427 702.52S2502.87 712.09 2575.65 712.09L2427 1063 L-100 1063 Z;M-100 687.91C-24.84 708.59 -23.37 701.05 48.65 701.05S123.97 704.35 197.29 704.35S273.81 718.07 345.94 718.07S422.48 691.27 494.59 691.27S570.04 699.91 643.24 699.91S719.88 700.38 791.88 700.38S867.73 697.82 940.53 697.82S1015.69 698.87 1089.18 698.87S1164.66 708.08 1237.82 708.08S1313.62 707.06 1386.47 707.06S1461.65 710.65 1535.12 710.65S1611.16 714.98 1683.76 714.98S1759.18 701.44 1832.41 701.44S1907.92 684.87 1981.06 684.87S2055.45 706.89 2129.71 706.89S2206.45 711.01 2278.35 711.01S2353.5 717.62 2427 717.62S2501.37 712.07 2575.65 712.07L2427 1063 L-100 1063 Z;M-100 687.02C-25.23 697.07 -23.96 712.14 48.65 712.14S124.56 696.14 197.29 696.14S273.82 718.6 345.94 718.6S421.65 690.99 494.59 690.99S569.89 702.97 643.24 702.97S720.23 690.59 791.88 690.59S867.96 692.78 940.53 692.78S1016.26 697.28 1089.18 697.28S1165.44 710.64 1237.82 710.64S1314.18 700.13 1386.47 700.13S1461.04 687.33 1535.12 687.33S1609.74 704.38 1683.76 704.38S1759.32 689.9 1832.41 689.9S1907.39 697.48 1981.06 697.48S2056.41 703.75 2129.71 703.75S2206.74 694.29 2278.35 694.29S2352.91 702.52 2427 702.52S2502.87 712.09 2575.65 712.09L2427 1063 L-100 1063 Z"/><animateTransform attributeName="transform" begin="-7.058823529411765s" calcMode="spline" dur="17.647058823529413s" keySplines="0.3 0 0.7 1;0.3 0 0.7 1" repeatCount="indefinite" type="translate" values="0;10;0"/></path><path fill="#007461" d="M-100 716.7c77.1-13.48 76.67-13.87 151.62-13.87s77.6 12.05 151.62 12.05 76.15-8.42 151.62-8.42 77.97-6.77 151.62-6.77 76.93 14.97 151.62 14.97 77.04-3.34 151.62-3.34 75.83-6.63 151.62-6.63 76.3 1.96 151.62 1.96 76.03 23.27 151.62 23.27 76.67-14.24 151.62-14.24 78.37 11.09 151.62 11.09 77.34-30.19 151.62-30.19 76.78 32.31 151.62 32.31 78.29-33.67 151.62-33.67 76.68 7.91 151.62 7.91 76.58 14.77 151.62 14.77 77.78-2.99 151.62-2.99L2427 1063H-100Z"><animate attributeName="d" dur="15.686274509803921s" repeatCount="indefinite" values="M-100 716.7C-22.9 703.22 -23.33 702.83 51.62 702.83S129.22 714.88 203.24 714.88S279.39 706.46 354.86 706.46S432.83 699.69 506.48 699.69S583.41 714.66 658.1 714.66S735.14 711.32 809.72 711.32S885.55 704.69 961.34 704.69S1037.64 706.65 1112.96 706.65S1188.99 729.92 1264.58 729.92S1341.25 715.68 1416.2 715.68S1494.57 726.77 1567.82 726.77S1645.16 696.58 1719.44 696.58S1796.22 728.89 1871.06 728.89S1949.35 695.22 2022.68 695.22S2099.36 703.13 2174.3 703.13S2250.88 717.9 2325.92 717.9S2403.7 714.91 2477.54 714.91L2427 1063 L-100 1063 Z;M-100 712.3C-23.65 703.58 -23.22 703.02 51.62 703.02S128.96 703.64 203.24 703.64S280.58 719.96 354.86 719.96S431.26 719.11 506.48 719.11S584.39 728.73 658.1 728.73S734.03 699.14 809.72 699.14S885.74 700.78 961.34 700.78S1038.06 704.91 1112.96 704.91S1188.82 725.8 1264.58 725.8S1342.58 722.26 1416.2 722.26S1493.19 707.51 1567.82 707.51S1644.55 694.73 1719.44 694.73S1795.73 727.6 1871.06 727.6S1949.5 719.77 2022.68 719.77S2099.33 727.68 2174.3 727.68S2251.82 706.81 2325.92 706.81S2403.87 706.04 2477.54 706.04L2427 1063 L-100 1063 Z;M-100 716.7C-22.9 703.22 -23.33 702.83 51.62 702.83S129.22 714.88 203.24 714.88S279.39 706.46 354.86 706.46S432.83 699.69 506.48 699.69S583.41 714.66 658.1 714.66S735.14 711.32 809.72 711.32S885.55 704.69 961.34 704.69S1037.64 706.65 1112.96 706.65S1188.99 729.92 1264.58 729.92S1341.25 715.68 1416.2 715.68S1494.57 726.77 1567.82 726.77S1645.16 696.58 1719.44 696.58S1796.22 728.89 1871.06 728.89S1949.35 695.22 2022.68 695.22S2099.36 703.13 2174.3 703.13S2250.88 717.9 2325.92 717.9S2403.7 714.91 2477.54 714.91L2427 1063 L-100 1063 Z"/><animateTransform attributeName="transform" begin="-7.3202614379084965s" calcMode="spline" dur="15.686274509803921s" keySplines="0.3 0 0.7 1;0.3 0 0.7 1" repeatCount="indefinite" type="translate" values="0;10;0"/></path><path fill="#06825f" d="M-100 723.38c79.32-21.93 78.39 5.4 154.71 5.4s78.01-4.58 154.72-4.58 79.72 13.49 154.71 13.49 79.9-24.19 154.72-24.19 78.29-1.69 154.71-1.69 77.71 16.78 154.72 16.78 77.57 4.02 154.71 4.02 77.56-11.45 154.71-11.45 77.38 11.07 154.72 11.07 78.63-31.54 154.71-31.54 77.53 17.57 154.72 17.57 79.63 18.65 154.71 18.65 79.65-18.11 154.72-18.11 80.06 2.06 154.71 2.06 78.74.12 154.71.12 79.57 11.68 154.72 11.68 77.81-1.42 154.71-1.42L2427 1063H-100Z"><animate attributeName="d" dur="13.72549019607843s" repeatCount="indefinite" values="M-100 723.38C-20.68 701.45 -21.61 728.78 54.71 728.78S132.72 724.2 209.43 724.2S289.15 737.69 364.14 737.69S444.04 713.5 518.86 713.5S597.15 711.81 673.57 711.81S751.28 728.59 828.29 728.59S905.86 732.61 983 732.61S1060.56 721.16 1137.71 721.16S1215.09 732.23 1292.43 732.23S1371.06 700.69 1447.14 700.69S1524.67 718.26 1601.86 718.26S1681.49 736.91 1756.57 736.91S1836.22 718.8 1911.29 718.8S1991.35 720.86 2066 720.86S2144.74 720.98 2220.71 720.98S2300.28 732.66 2375.43 732.66S2453.24 731.24 2530.14 731.24L2427 1063 L-100 1063 Z;M-100 717.21C-20.14 710.31 -20.56 725.19 54.71 725.19S133.45 726.74 209.43 726.74S287.71 729.66 364.14 729.66S443.6 721.14 518.86 721.14S597.48 726.66 673.57 726.66S751.57 728.76 828.29 728.76S908.26 730.72 983 730.72S1061.46 711 1137.71 711S1216.65 722.9 1292.43 722.9S1371.28 723.45 1447.14 723.45S1524.76 712.37 1601.86 712.37S1681.69 708.1 1756.57 708.1S1834.69 716.23 1911.29 716.23S1989.47 725.21 2066 725.21S2144.49 722.12 2220.71 722.12S2299.02 720.73 2375.43 720.73S2455.43 717.52 2530.14 717.52L2427 1063 L-100 1063 Z;M-100 723.38C-20.68 701.45 -21.61 728.78 54.71 728.78S132.72 724.2 209.43 724.2S289.15 737.69 364.14 737.69S444.04 713.5 518.86 713.5S597.15 711.81 673.57 711.81S751.28 728.59 828.29 728.59S905.86 732.61 983 732.61S1060.56 721.16 1137.71 721.16S1215.09 732.23 1292.43 732.23S1371.06 700.69 1447.14 700.69S1524.67 718.26 1601.86 718.26S1681.49 736.91 1756.57 736.91S1836.22 718.8 1911.29 718.8S1991.35 720.86 2066 720.86S2144.74 720.98 2220.71 720.98S2300.28 732.66 2375.43 732.66S2453.24 731.24 2530.14 731.24L2427 1063 L-100 1063 Z"/><animateTransform attributeName="transform" begin="-7.3202614379084965s" calcMode="spline" dur="13.72549019607843s" keySplines="0.3 0 0.7 1;0.3 0 0.7 1" repeatCount="indefinite" type="translate" values="0;10;0"/></path><path fill="#2e905b" d="M-100 735.03c80.05-6.35 81.64 1.34 157.94 1.34s80.17 2.31 157.94 2.31 80.75-3.12 157.93-3.12 79.93-1.39 157.94-1.39 81.51-6.14 157.94-6.14 80.38-1.79 157.94-1.79 79.61 5.7 157.93 5.7 79.22-6.5 157.94-6.5 79.38 2.11 157.94 2.11 80.35-12.45 157.94-12.45 81.16 7.86 157.93 7.86 81.02 5.96 157.94 5.96 79.69 14.81 157.94 14.81 80.79-28.54 157.94-28.54 81.52 28.67 157.93 28.67 79.81-18.52 157.94-18.52 80.29-2.67 157.94-2.67L2427 1063H-100Z"><animate attributeName="d" dur="11.76470588235294s" repeatCount="indefinite" values="M-100 735.03C-19.95 728.68 -18.36 736.37 57.94 736.37S138.11 738.68 215.88 738.68S296.63 735.56 373.81 735.56S453.74 734.17 531.75 734.17S613.26 728.03 689.69 728.03S770.07 726.24 847.63 726.24S927.24 731.94 1005.56 731.94S1084.78 725.44 1163.5 725.44S1242.88 727.55 1321.44 727.55S1401.79 715.1 1479.38 715.1S1560.54 722.96 1637.31 722.96S1718.33 728.92 1795.25 728.92S1874.94 743.73 1953.19 743.73S2033.98 715.19 2111.13 715.19S2192.65 743.86 2269.06 743.86S2348.87 725.34 2427 725.34S2507.29 722.67 2584.94 722.67L2427 1063 L-100 1063 Z;M-100 719.85C-19.36 708.98 -20.94 726.66 57.94 726.66S138.29 715.4 215.88 715.4S295.42 744.05 373.81 744.05S455.18 718.89 531.75 718.89S613.21 741.47 689.69 741.47S770.84 729.9 847.63 729.9S928.18 746.08 1005.56 746.08S1085.54 721.28 1163.5 721.28S1243 733.83 1321.44 733.83S1402.36 708.87 1479.38 708.87S1559.09 744.86 1637.31 744.86S1717.11 714.77 1795.25 714.77S1874.56 739.33 1953.19 739.33S2032.39 717.31 2111.13 717.31S2191.79 734.66 2269.06 734.66S2350.62 716.67 2427 716.67S2508.34 743.34 2584.94 743.34L2427 1063 L-100 1063 Z;M-100 735.03C-19.95 728.68 -18.36 736.37 57.94 736.37S138.11 738.68 215.88 738.68S296.63 735.56 373.81 735.56S453.74 734.17 531.75 734.17S613.26 728.03 689.69 728.03S770.07 726.24 847.63 726.24S927.24 731.94 1005.56 731.94S1084.78 725.44 1163.5 725.44S1242.88 727.55 1321.44 727.55S1401.79 715.1 1479.38 715.1S1560.54 722.96 1637.31 722.96S1718.33 728.92 1795.25 728.92S1874.94 743.73 1953.19 743.73S2033.98 715.19 2111.13 715.19S2192.65 743.86 2269.06 743.86S2348.87 725.34 2427 725.34S2507.29 722.67 2584.94 722.67L2427 1063 L-100 1063 Z"/><animateTransform attributeName="transform" begin="-7.0588235294117645s" calcMode="spline" dur="11.76470588235294s" keySplines="0.3 0 0.7 1;0.3 0 0.7 1" repeatCount="indefinite" type="translate" values="0;10;0"/></path><path fill="#4d9d54" d="M-100 726.95c82.7 14.84 82.65 29.29 161.3 29.29s83.1-15.64 161.3-15.64 80.89-9.97 161.29-9.97 80.82-4.37 161.3-4.37 81 28.9 161.3 28.9 82.17-15.77 161.3-15.77 80.94 9.16 161.3 9.16 81.01-3.19 161.29-3.19 82.72 8.21 161.3 8.21 80.83-24.83 161.3-24.83 82.78 6.64 161.3 6.64 81.29-11.23 161.29-11.23 83.23 27.65 161.3 27.65 83.19-27.87 161.3-27.87 81.29 32.19 161.3 32.19 82.53-6.79 161.3-6.79L2427 1063H-100Z"><animate attributeName="d" dur="9.803921568627452s" repeatCount="indefinite" values="M-100 726.95C-17.3 741.79 -17.35 756.24 61.3 756.24S144.4 740.6 222.6 740.6S303.49 730.63 383.89 730.63S464.71 726.26 545.19 726.26S626.19 755.16 706.49 755.16S788.66 739.39 867.79 739.39S948.73 748.55 1029.09 748.55S1110.1 745.36 1190.38 745.36S1273.1 753.57 1351.68 753.57S1432.51 728.74 1512.98 728.74S1595.76 735.38 1674.28 735.38S1755.57 724.15 1835.57 724.15S1918.8 751.8 1996.87 751.8S2080.06 723.93 2158.17 723.93S2239.46 756.12 2319.47 756.12S2402 749.33 2480.77 749.33L2427 1063 L-100 1063 Z;M-100 723.75C-17.03 728.26 -19.15 720.54 61.3 720.54S143.22 716.61 222.6 716.61S305.47 743.16 383.89 743.16S464.54 732.63 545.19 732.63S628.51 732.8 706.49 732.8S789.02 742.21 867.79 742.21S950.77 756.66 1029.09 756.66S1110.52 733.29 1190.38 733.29S1273.22 740.21 1351.68 740.21S1433.35 728.32 1512.98 728.32S1596.09 748.64 1674.28 748.64S1756.4 735.67 1835.57 735.67S1916.5 740.22 1996.87 740.22S2079.29 730.93 2158.17 730.93S2239.88 739.03 2319.47 739.03S2401.04 724.5 2480.77 724.5L2427 1063 L-100 1063 Z;M-100 726.95C-17.3 741.79 -17.35 756.24 61.3 756.24S144.4 740.6 222.6 740.6S303.49 730.63 383.89 730.63S464.71 726.26 545.19 726.26S626.19 755.16 706.49 755.16S788.66 739.39 867.79 739.39S948.73 748.55 1029.09 748.55S1110.1 745.36 1190.38 745.36S1273.1 753.57 1351.68 753.57S1432.51 728.74 1512.98 728.74S1595.76 735.38 1674.28 735.38S1755.57 724.15 1835.57 724.15S1918.8 751.8 1996.87 751.8S2080.06 723.93 2158.17 723.93S2239.46 756.12 2319.47 756.12S2402 749.33 2480.77 749.33L2427 1063 L-100 1063 Z"/><animateTransform attributeName="transform" begin="-6.535947712418301s" calcMode="spline" dur="9.803921568627452s" keySplines="0.3 0 0.7 1;0.3 0 0.7 1" repeatCount="indefinite" type="translate" values="0;10;0"/></path><path fill="#6caa4d" d="M-100 762.75c84.21-19.89 85.14-17.66 164.8-17.66s82.86 2.08 164.81 2.08 85.01-10.86 164.8-10.86 83.73 14.84 164.81 14.84 82.69 10.89 164.8 10.89 83.46-32.74 164.81-32.74 84.37 15.51 164.8 15.51 84.11-9.89 164.8-9.89 84.79 25.35 164.81 25.35 82.75-27.11 164.8-27.11 83.21 11.99 164.81 11.99 82.41-8.91 164.8-8.91 84.35-3.47 164.81-3.47 82.48-8.54 164.8-8.54 83.38 19.14 164.81 19.14 83.52-15.93 164.8-15.93L2427 1063H-100Z"><animate attributeName="d" dur="7.8431372549019605s" repeatCount="indefinite" values="M-100 762.75C-15.79 742.86 -14.86 745.09 64.8 745.09S147.66 747.17 229.61 747.17S314.62 736.31 394.41 736.31S478.14 751.15 559.22 751.15S641.91 762.04 724.02 762.04S807.48 729.3 888.83 729.3S973.2 744.81 1053.63 744.81S1137.74 734.92 1218.43 734.92S1303.22 760.27 1383.24 760.27S1465.99 733.16 1548.04 733.16S1631.25 745.15 1712.85 745.15S1795.26 736.24 1877.65 736.24S1962 732.77 2042.46 732.77S2124.94 724.23 2207.26 724.23S2290.64 743.37 2372.07 743.37S2455.59 727.44 2536.87 727.44L2427 1063 L-100 1063 Z;M-100 746C-17.27 758.89 -15.66 743.5 64.8 743.5S147.76 745.14 229.61 745.14S314.49 735.87 394.41 735.87S478.33 729.28 559.22 729.28S641.84 741.17 724.02 741.17S806.68 736.92 888.83 736.92S972.3 750.35 1053.63 750.35S1136.96 730.33 1218.43 730.33S1302.66 759.91 1383.24 759.91S1468.28 744.04 1548.04 744.04S1632.58 765.11 1712.85 765.11S1795.34 727.7 1877.65 727.7S1961.87 741.38 2042.46 741.38S2127.04 723.87 2207.26 723.87S2292.06 746.21 2372.07 746.21S2456.33 750.6 2536.87 750.6L2427 1063 L-100 1063 Z;M-100 762.75C-15.79 742.86 -14.86 745.09 64.8 745.09S147.66 747.17 229.61 747.17S314.62 736.31 394.41 736.31S478.14 751.15 559.22 751.15S641.91 762.04 724.02 762.04S807.48 729.3 888.83 729.3S973.2 744.81 1053.63 744.81S1137.74 734.92 1218.43 734.92S1303.22 760.27 1383.24 760.27S1465.99 733.16 1548.04 733.16S1631.25 745.15 1712.85 745.15S1795.26 736.24 1877.65 736.24S1962 732.77 2042.46 732.77S2124.94 724.23 2207.26 724.23S2290.64 743.37 2372.07 743.37S2455.59 727.44 2536.87 727.44L2427 1063 L-100 1063 Z"/><animateTransform attributeName="transform" begin="-5.751633986928104s" calcMode="spline" dur="7.8431372549019605s" keySplines="0.3 0 0.7 1;0.3 0 0.7 1" repeatCount="indefinite" type="translate" values="0;10;0"/></path><path fill="#8eb545" d="M-100 733.47c85.91 13.93 85.58 25.06 168.47 25.06s85.94 14.12 168.46 14.12 85.46-9.1 168.47-9.1 86.6-8.63 168.47-8.63 84.97-9.38 168.46-9.38 84.7-13.09 168.47-13.09 84.3 18.47 168.47 18.47 84.83 12.43 168.46 12.43 84.62 7.48 168.47 7.48 85.82-4.33 168.47-4.33 85.17-28.44 168.46-28.44 86.42 11.92 168.47 11.92 85.19 8 168.47 8 84.74-4.04 168.46-4.04 85.18-3.09 168.47-3.09 84.54-5.66 168.47-5.66L2427 1063H-100Z"><animate attributeName="d" dur="5.88235294117647s" repeatCount="indefinite" values="M-100 733.47C-14.09 747.4 -14.42 758.53 68.47 758.53S154.41 772.65 236.93 772.65S322.39 763.55 405.4 763.55S492 754.92 573.87 754.92S658.84 745.54 742.33 745.54S827.03 732.45 910.8 732.45S995.1 750.92 1079.27 750.92S1164.1 763.35 1247.73 763.35S1332.35 770.83 1416.2 770.83S1502.02 766.5 1584.67 766.5S1669.84 738.06 1753.13 738.06S1839.55 749.98 1921.6 749.98S2006.79 757.98 2090.07 757.98S2174.81 753.94 2258.53 753.94S2343.71 750.85 2427 750.85S2511.54 745.19 2595.47 745.19L2427 1063 L-100 1063 Z;M-100 743.29C-15.14 757.3 -15.04 756.32 68.47 756.32S154.43 753.53 236.93 753.53S323.39 750.01 405.4 750.01S492.08 756.78 573.87 756.78S659.43 774.07 742.33 774.07S826.82 740.07 910.8 740.07S995.44 734.86 1079.27 734.86S1165.65 735.3 1247.73 735.3S1334.2 758.97 1416.2 758.97S1501.47 757.49 1584.67 757.49S1669.02 765.69 1753.13 765.69S1839.95 735.54 1921.6 735.54S2007.68 754.06 2090.07 754.06S2176.9 740.04 2258.53 740.04S2344.89 769.8 2427 769.8S2513.2 758.33 2595.47 758.33L2427 1063 L-100 1063 Z;M-100 733.47C-14.09 747.4 -14.42 758.53 68.47 758.53S154.41 772.65 236.93 772.65S322.39 763.55 405.4 763.55S492 754.92 573.87 754.92S658.84 745.54 742.33 745.54S827.03 732.45 910.8 732.45S995.1 750.92 1079.27 750.92S1164.1 763.35 1247.73 763.35S1332.35 770.83 1416.2 770.83S1502.02 766.5 1584.67 766.5S1669.84 738.06 1753.13 738.06S1839.55 749.98 1921.6 749.98S2006.79 757.98 2090.07 757.98S2174.81 753.94 2258.53 753.94S2343.71 750.85 2427 750.85S2511.54 745.19 2595.47 745.19L2427 1063 L-100 1063 Z"/><animateTransform attributeName="transform" begin="-4.705882352941176s" calcMode="spline" dur="5.88235294117647s" keySplines="0.3 0 0.7 1;0.3 0 0.7 1" repeatCount="indefinite" type="translate" values="0;10;0"/></path><path fill="#b1be40" d="M-100 768.61c87.26-3.2 87.77-9.41 172.3-9.41s86.59 6.99 172.29 6.99 86.44-8.17 172.3-8.17 87.98-9.62 172.29-9.62 88.33 15.74 172.3 15.74 87.95-11.89 172.29-11.89 87.77 24.3 172.3 24.3 87.41-24.44 172.29-24.44 87.85 15.33 172.3 15.33 86.95 1.66 172.29 1.66 87.19 11.29 172.3 11.29 87.32-32.89 172.3-32.89 87.67 27.32 172.29 27.32 87.08-28.19 172.3-28.19 88.54 19.04 172.29 19.04L2427 1063H-100Z"><animate attributeName="d" dur="3.9215686274509802s" repeatCount="indefinite" values="M-100 768.61C-12.74 765.41 -12.23 759.2 72.3 759.2S158.89 766.19 244.59 766.19S331.03 758.02 416.89 758.02S504.87 748.4 589.18 748.4S677.51 764.14 761.48 764.14S849.43 752.25 933.77 752.25S1021.54 776.55 1106.07 776.55S1193.48 752.11 1278.36 752.11S1366.21 767.44 1450.66 767.44S1537.61 769.1 1622.95 769.1S1710.14 780.39 1795.25 780.39S1882.57 747.5 1967.55 747.5S2055.22 774.82 2139.84 774.82S2226.92 746.63 2312.14 746.63S2400.68 765.67 2484.43 765.67L2427 1063 L-100 1063 Z;M-100 752.48C-13.59 756.13 -13.63 781.35 72.3 781.35S158.61 765.93 244.59 765.93S330.87 760.14 416.89 760.14S505.56 755.83 589.18 755.83S676.79 781.13 761.48 781.13S849.08 741.75 933.77 741.75S1021.91 780.05 1106.07 780.05S1193.47 758.46 1278.36 758.46S1366.07 782.33 1450.66 782.33S1537.68 747.23 1622.95 747.23S1711.79 759.93 1795.25 759.93S1883.4 746.36 1967.55 746.36S2056.2 768.18 2139.84 768.18S2227.28 760.65 2312.14 760.65S2400.54 757.42 2484.43 757.42L2427 1063 L-100 1063 Z;M-100 768.61C-12.74 765.41 -12.23 759.2 72.3 759.2S158.89 766.19 244.59 766.19S331.03 758.02 416.89 758.02S504.87 748.4 589.18 748.4S677.51 764.14 761.48 764.14S849.43 752.25 933.77 752.25S1021.54 776.55 1106.07 776.55S1193.48 752.11 1278.36 752.11S1366.21 767.44 1450.66 767.44S1537.61 769.1 1622.95 769.1S1710.14 780.39 1795.25 780.39S1882.57 747.5 1967.55 747.5S2055.22 774.82 2139.84 774.82S2226.92 746.63 2312.14 746.63S2400.68 765.67 2484.43 765.67L2427 1063 L-100 1063 Z"/><animateTransform attributeName="transform" begin="-3.3986928104575163s" calcMode="spline" dur="3.9215686274509802s" keySplines="0.3 0 0.7 1;0.3 0 0.7 1" repeatCount="indefinite" type="translate" values="0;10;0"/></path><path fill="#d7c640" d="M-100 778.35c90.33 13.96 90.56-21.23 176.3-21.23s90.04-2.66 176.3-2.66 90.03 21.59 176.31 21.59 88.62-4.48 176.3-4.48 88.9 17.08 176.3 17.08 89.51-41.04 176.3-41.04 88.94 21.5 176.31 21.5 89.89 4.69 176.3 4.69 90.15 11.53 176.3 11.53 89.09-30.5 176.3-30.5 88.83 22.68 176.31 22.68 89-5.28 176.3-5.28 90.03-2.31 176.3-2.31 88.45-22.75 176.3-22.75 88.57 36.74 176.3 36.74L2427 1063H-100Z"><animate attributeName="d" dur="1.9607843137254901s" repeatCount="indefinite" values="M-100 778.35C-9.67 792.31 -9.44 757.12 76.3 757.12S166.34 754.46 252.6 754.46S342.63 776.05 428.91 776.05S517.53 771.57 605.21 771.57S694.11 788.65 781.51 788.65S871.02 747.61 957.81 747.61S1046.75 769.11 1134.12 769.11S1224.01 773.8 1310.42 773.8S1400.57 785.33 1486.72 785.33S1575.81 754.83 1663.02 754.83S1751.85 777.51 1839.33 777.51S1928.33 772.23 2015.63 772.23S2105.66 769.92 2191.93 769.92S2280.38 747.17 2368.23 747.17S2456.8 783.91 2544.53 783.91L2427 1063 L-100 1063 Z;M-100 772.02C-11.58 747.8 -9.14 764.15 76.3 764.15S164.6 762.1 252.6 762.1S342.45 783.74 428.91 783.74S518.93 760.63 605.21 760.63S695.55 788.22 781.51 788.22S871.01 749.36 957.81 749.36S1047.17 771.42 1134.12 771.42S1223.87 770.25 1310.42 770.25S1400.57 781.4 1486.72 781.4S1575.94 747.55 1663.02 747.55S1753.71 790.19 1839.33 790.19S1927.82 747.93 2015.63 747.93S2105.18 779.02 2191.93 779.02S2280.74 764.48 2368.23 764.48S2457.74 773.19 2544.53 773.19L2427 1063 L-100 1063 Z;M-100 778.35C-9.67 792.31 -9.44 757.12 76.3 757.12S166.34 754.46 252.6 754.46S342.63 776.05 428.91 776.05S517.53 771.57 605.21 771.57S694.11 788.65 781.51 788.65S871.02 747.61 957.81 747.61S1046.75 769.11 1134.12 769.11S1224.01 773.8 1310.42 773.8S1400.57 785.33 1486.72 785.33S1575.81 754.83 1663.02 754.83S1751.85 777.51 1839.33 777.51S1928.33 772.23 2015.63 772.23S2105.66 769.92 2191.93 769.92S2280.38 747.17 2368.23 747.17S2456.8 783.91 2544.53 783.91L2427 1063 L-100 1063 Z"/><animateTransform attributeName="transform" begin="-1.8300653594771241s" calcMode="spline" dur="1.9607843137254901s" keySplines="0.3 0 0.7 1;0.3 0 0.7 1" repeatCount="indefinite" type="translate" values="0;10;0"/></path></svg>